<svg xmlns="http://www.w3.org/2000/svg" viewBox="-95 -5 450 120">
        <path fill="#880" fill-rule="evenodd" d="M46.4 28.2C44.5 34 31.8 33 34 27.5c2.2-5.4 14.2-5.1 12.4 0.7zm-42.2 75l345 .3c2.2 0 4-2.5 3.2-4.7-1-2.2-32.4-83.4-33-85-.4-1.5-2.8-4-4.8-4L38.8 9.5c-2.8 0-4.5 1-5.5 3.6L.7 98.7c-.9 2.3 0 4.5 3.5 4.5zm24.4-24.3c-2 7.1-15.9 5.9-13.5-.8 2.4-6.8 15.5-6.4 13.5 0.8zm278.6-50.6c1.8 5.8 14.6 4.8 12.3-.7-2.2-5.4-14.1-5.1-12.3 0.7zM324.9 79c2 7.1 16 5.9 13.5-.8-2.4-6.7-15.4-6.4-13.5 0.8z"></path>
        <path fill="#252" fill-rule="evenodd" d="M46.6 25c-1.9 5.8-14.6 4.8-12.4-.7 2.3-5.4 14.3-5.1 12.4 0.7zM3.8 100l345 .3c2.2 0 4-2.5 3.2-4.7l-32.2-84.9c-.5-1.6-2.8-4-4.8-4L39.2 6.3c-2.8 0-4.5 1-5.5 3.7L.3 95.5c-.9 2.3 0 4.5 3.5 4.5zm24.6-24.3c-2 7.2-16 5.9-13.5-.8s15.5-6.3 13.5 0.8zm279-50.6c1.8 5.8 14.6 4.8 12.4-.7-2.2-5.4-14.1-5.1-12.4 0.7zm17.3 50.7c2 7.2 15.9 6 13.5-.8-2.3-6.7-15.4-6.3-13.5 0.8z"></path>
        
        <!-- RASPBERRY PI LOGO (SKEWED) -->
        <path fill="#fff" fill-opacity=".5" d="M303.3 49.4c.1 1.5-.5 3-1.7 4-.2 0.3-.3 0.3-.4 0.7-.4 1.2-1 2.3-1.8 3.3l-.4 0.5c-.2 1-1.5 2.3-3 3-.9 0.4-2 .7-3 .9l-1.2 0.2-2.4 0.5c-.5 0-.5 0-.8 0.3-.8 0.6-2 1-3.2 1.2a12.5 12.5 0 01-9.1-2.3l-.7-.3-.6-.2-1.8-.1a11.5 11.5 0 01-7.2-3.3v.2l-.4 0.7c-.1 0.2-.6 0.3-.7 0.3l-.2 0.3c-.1 0.6-.5 1-1.1 1l-.7 0.5c-.5 0.4-.7 0.6-1.1 0.6l-.4 0.1c-.4 0.4-1 .6-1.6 0.5h-.3l-.2 0.2c-.4 0.3-.8 0.4-1.3 0.4l-.2-.1h-.3c-.4 0.2-1 .4-1.3 0.3l-.6-.1-.2-.1h-.2c-.4 0.2-1 .2-1.4 0-.5-.1-.9-.5-1-1v-.4l-.3-.1a2 2 0 01-1-1.4c0-.3 0-.3-.2-.4-.3-.2-.4-.4-.5-.8 0-.3 0-.4-.2-.4-.5-.4-.7-1-.5-1.5v-.1l-.2-.3-.3-.4 0.1-.8v-.4l-.2-.6 0.2-.4c.2-.3 0.2-.3 0-.5 0-.5 0-.8 0.5-1.2l.3-.3v-.2-.5c.3-.4 0.8-.9 1.4-1.3a11 11 0 012.6-1h-.4l-2.5-.9c-.7-.3-1.6-.9-2-1.2-.3-.2-.3-.3-.3-.5v-.2l-.5-.3c-.7-.4-1-.7-1-1.2 0-.3 0-.3-.3-.5l-.4-.4a1 1 0 01-.1-.6v-.2l-.2-.3-.5-.7c0-.2 0-.4 0.2-.6 0.1-.1 0.1-.1 0-.2l-.4-.7c0-.4 0-.6 0.2-1v-.4c-.2-.5-.2-.8 0-1h.2v-.3c-.2-.7-.1-1.1 0.2-1.4l.2-.2v-.3-.5c0-.2 0.3-.3 0.5-.4 0.3-.2 0.8-.2 1.3 0h.6c.7-.2 1.2-.2 1.9 0.1h.4c.4 0 1 .1 1.6 0.4l.3 0.1h.5l.7 0.1.6 0.3.7 0.3a3.2 3.2 0 011.8 0.8l.5 0.3c.3 0 .7 0.2.9 0.4l.7 0.7c0 .2 0.1.2 0.2.2 0.2 0 .7 0.2.9 0.4.2 0.1.5 0.4.6 0.7l.2 0.2.3-.3c.3-.6 0.7-1 1.2-1.4 0.9-.8 2-1.2 3.4-1.5l2-.2h.8l.3-.2 0.4-.3c.5-.6 1.1-1.2 2-1.6 1.9-1 4.3-1.2 6.6-.7 1.2 0.3 2.6 0.8 3.6 1.4 0.2.1 0.2.2 0.8.3a125 125 0 013.8 0.8c2 .3 3.8 0.9 5.4 1.8a9 9 0 012.5 2.1 16.9 16.9 0 014 3.8c.2 0.3.2 0.4.6 0.6 1.3 0.8 2.3 1.9 3 3 .4 0.6.7 1.5 0.8 2.2zM301 48a6.6 6.6 0 00-1.6-2c-.9-.8-2-1.6-2.6-1.6-1-.2-1.7 1.4-1.4 3.3a10.2 10.2 0 002 4.5c.5 0.6 1.1 1 1.6 1 .4 0 1.3-.7 1.8-1.5 0.5-.6 0.7-1.4 0.7-2 0-.4-.3-1.4-.5-1.7zm-3.9 7c-.2-.3-.5-.5-1-.7-1.4-.5-4-.2-5.6 0.7-.6 0.3-1.5 1-2 1.5-1 1.3-1.2 2.5-.4 3.3 0.4.4 1 .7 2 .8h2c1.3-.2 2.5-.6 3.2-1 1.4-1 2.2-2.2 2.2-3.4 0-.3-.2-.8-.4-1.1zM294 41c-.4-.6-1-1.3-1.8-2a10.7 10.7 0 00-9.2-1.8c-1.2 0.3-1.4 0.6-1.3 1.3 0 .3 0.1.4 0.3.6 0.6 1 2 2 3.9 3l1.9 0.8 3 .8h2.1c.4 0 .8-.1 1-.3 0.2-.1 0.4-.5 0.5-1 0-.3-.2-1-.4-1.3zm-.6 7a6.3 6.3 0 00-3.4-3.1 9 9 0 00-2.2-.6h-2a5 5 0 00-2.6 1.1c-.8 0.7-1.2 1.7-1.1 2.8 0.1 1.8 1.5 3.4 3.6 4.4a9 9 0 002.2 0.6h1.9c.7-.1 1.5-.4 2-.8a5 5 0 001.2-1c.7-1 .9-2.2 0.4-3.4zm-5.7 13.2c-.7-.8-4.5-1.5-7.8-1.5-1.6 0-2.4 0.1-2.8 0.4-.3 0.3-.2 0.5.3 0.9a9 9 0 004.5 2c1.7 0.2 3.6 0 4.9-.6l1-.8V61zm-6-25c-1.7-1-4.4-1.5-6.5-1.2-1.3 0.2-2.4 0.7-3 1.4l-.7 1c0 .4 0.6.8 1.7 1 2.4 0.3 6.8-.3 8.2-1.1 0.5-.2 0.6-.4 0.5-.7 0-.2 0-.2-.2-.3zm2.8 17.9a6.4 6.4 0 00-3-3 11 11 0 00-7.3-1.1 4 4 0 00-1.8 0.9c-.7 0.6-1 1.1-.9 2 0 1 1 2.3 2.4 3.3l1.6 1 2.2 0.7c1.5 0.4 3 .4 4.4 0 .7-.1 1.2-.4 1.7-.7 1-.8 1.2-2 .7-3.1zm-3-11.6c-.2-.7-.6-1.3-1.2-1.7a7 7 0 00-2.7-1.2 9 9 0 00-6.8 1.2c-1.6 1.1-2 3-1 4.5 0.7 1.1 2 2 3.8 2.3 0.7.2 1.2 0.3 2 .3a7.1 7.1 0 004.6-1.4c1-.8 1.6-2 1.5-3.2l-.2-.8zM270 37.9h-.7c-1.2 0-2.4 0.1-3.2 0.5-2 .8-3 2.4-2.5 4.5l.5 1.3h.1c1 0 4.2-3 5.5-5 .4-.5 0.5-.8 0.4-1l-.1-.3zm4.5 21.3a33.8 33.8 0 00-7.3-5.3c-.7-.3-1-.4-1.2-.3-.1 0.2.1 1.5 0.4 2.1 1 2.6 4.2 4.3 7.8 4.3h.6v-.3c0-.2 0-.3-.3-.5zm-4.6-11.7c-.8-1.9-2.2-3-3.6-3-1.6 0.2-3 1.9-2.8 3.7 0 1.3 1.3 3 2.8 4a4 4 0 001.9 0.6h.4c1.2-.4 2-1.7 1.9-3.3a8 8 0 00-.6-2zm-5.3 7.2a6 6 0 00-1.4-2l-.7-.4a5 5 0 00-1.5-.6l-.4-.1-.5 0.4a20 20 0 00-4.6 6.6l.4-1.5c.7-2.2 1.8-4.1 3.1-5.7l.4-.4-.1-.2-.9-.6c-1.3-.8-3-.7-5 .2l-1.3 0.8-.2 0.2h.2l.6 0.1s0 .2-.2 0.2l-1.3 1h.3c.4 0 .4 0 .6 0.2h.1l-.2 0.2-1 1 .2-.1 0.7.1h.2l-.3 0.4-.5 0.9c-.2 0.3-.2 0.3.1 0.2.3-.2 0.5-.2 0.7-.1v.3c-.4 0.4-.6 1-.6 1.5h.2l.2-.3c.2-.2 0.3-.2 0.5-.1h.1v.4a5 5 0 00-.2 1.2l.2-.2c.2-.1 0.3-.2 0.4 0l.1 0.2v1.3c.2 0.5.2 0.5.6 0.3l.4-.3 0.2 1 .2 0.9.6-.3a8.8 8.8 0 011.2-.3v.3l.2 0.4h.2l.8-.8 0.3-.3v-.1h.2c.1 0.3.2 0.6.1 0.8 0 .1 0 .1 0.1 0l.8-.4 0.6-.5 0.4-.2v.4l.1 0.3h.1a40.4 40.4 0 011.1-1.3l.3 0.5.1 0.2.2-.3a8.3 8.3 0 00.9-1.5l.3 0.5v.2h.1l.6-1.3 0.2-.6 0.1.1 0.4.4v-1.1-.6l.6 0.2.2 0.1a9.9 9.9 0 00-.6-1.8zM261.4 41l-.4 0.4-.2-.2-.3-.7c-.2-.6-.4-1-.6-1.1v-.2 0.1l-.3 0.4s0 .1-.1 0l-1.3-1.6h-.2l.1 0.1v.3l-.1 0.1-.5-.5c-.5-.6-1-1-1.3-1.2h-.1V37.4l-1.2-.7-.7-.5-.2-.1 0.3.6-.1 0.1-.7-.4a8.2 8.2 0 00-1.5-.8l.1 0.2c.2 0.2.2 0.5.2 0.6l-.1 0.1-.6-.4a4 4 0 00-1.3-.6h-.3l.1 0.3.1 0.4a6 6 0 01-1.6-.5l-.5-.2 0.2.9 0.3.9-.4-.3-.4-.1c-.1 0.4 0 .8 0.5 1.6 0.2.3 0.2.3 0.1.4-.1 0-.3 0-.5-.2l-.3-.2 0.3.6a28 28 0 00.6 1.1l-.7-.3-.4-.2a11.5 11.5 0 001.3 1.7l.2 0.2H248.1c-.3-.2-.3-.2 0 .2l1 .8 0.3.3v.1c-.2 0.2-.5 0.3-.8 0.2h-.1l.6 0.5 1 .5v.2H249.2l.1 0.2a27.5 27.5 0 001.9 1l-.1 0.1-.4 0.1h-.2l.2 0.2c1 .5 2.3 1.1 3.4 1.4l1.6 0.3c1.1 0 2-.3 2.5-1l.1-.2-.6-.5a31.1 31.1 0 01-6.1-6.5c2.6 2.7 4.8 4.6 6.9 5.9l.7 0.4h.3c.8-.2 1.5-.7 1.8-1.3 0.5-.8 0.5-2 .2-3.3v-.4z"></path>
        
        <!-- LED -->
        <path id="redled" class="blk" d="M35.7 78H42l1.8-6 h-6.1z"></path>
        <path fill="#886" fill-opacity=".5" d="M35.7 78H42l-1-3.8-6.4 0.2z"></path>
        <path fill="#997" fill-opacity=".5" d="M42 78l1.8-6-1-3.3-1.8 5.5z"></path>
        <path fill="#886" d="M35.7 78l2-6-1.4-3.1-1.7 5.5z"></path>
        <path fill="#997" d="M37.7 72h6.1l-1-3.3-6.5 0.2z"></path>
        <path id="redled-top" class="glass" d="M34.6 74.4l6.4-0.2 1.8-5.5-6.5 0.2z"></path>
        
        <path fill="#222" d="M157.7 63.8v-4h45V64z"></path>
        <path fill="#333" d="M159.1 29.3l-1.4 30.4 45 .2-2.2-30.6z"></path>
        <path fill="#666" d="M101.2 72l3.3-16-.4-7.7-3.3 17z"></path>
        <path fill="#666" d="M39.3 62.6L49 30.3l-2.1-9-9.5 31.3z"></path>
        <path fill="#888" d="M39.3 62.6H3l-2-9.7 36.3-.3z"></path>
        <path fill="#888" d="M73.4 71.9l-1-6.7 28.4 0.2.4 6.6z"></path>
        <path fill="#aaa" d="M46.8 21.3l-34.3 0.6L1 52.9l36.4-.3z"></path>
        <path fill="#aaa" d="M72.4 65.2l3.7-16.8 28-.1-3.3 17z"></path>
        <path fill="#eed" fill-opacity=".5" d="M76.1 56.8a12.3 7.2 0 0112.3-7.3 12.3 7.2 0 0112.4 7.2A12.3 7.2 0 0188.5 64a12.3 7.2 0 01-12.4-7.2"></path>
        <path fill="#eed" d="M76.1 55.7a12.3 7.2 0 0112.3-7.2 12.3 7.2 0 0112.4 7.2 12.3 7.2 0 01-12.3 7.2 12.3 7.2 0 01-12.4-7.1"></path>
        
        <!-- EMPTY PINS -->
        <path fill="#242" d="M107.8 13.2l.4-2.1c.2-1 .7-1.6 1.9-1.6h6c1.2 0 1.4 0.7 1.2 1.6l-.3 2.1c-.1 1-.6 1.6-1.9 1.6h-6c-1.6 0-1.5-.7-1.3-1.6z"></path>
        <path fill="#242" d="M188.3 13.2v-2.1c-.1-1.2-.6-1.6-1.7-1.6H181c-1.1 0-1.6 0.6-1.5 1.6v2.1c0 1 .5 1.6 1.6 1.6h5.7c1.2 0 1.5-.7 1.5-1.6z"></path>
        <path fill="#242" d="M80 14.8c-1.6 0-1.5-.6-1.3-1.6l.6-2c.4-1.2 0.9-1.7 2-1.7h5.8c1 0 1.5 0.5 1.3 1.6l-.5 2.1c-.4 1.2-1 1.6-2.2 1.6z"></path>
        
        <!-- GROUND -->
        <path fill="#222" fill-opacity=".5" d="M039.8 94l1.4-4.9c.5-1.2 1.1-1.5 2.6-1.6h6.4c1.6 0 2 .4 1.6 1.6L50.5 94c-.4 1.2-.8 1.6-2.6 1.6h-6.5c-1.5 0-2-.5-1.6-1.6z"></path>
        <path fill="#222" fill-opacity=".5" d="M127.6 94l.5-4.7c.1-1 .9-1.7 2.3-1.7h6.6c1.5 0 2.1 0.4 2 1.6l-.4 4.8c-.1 0.8-.3 1.6-2.3 1.6h-6.8c-1.6 0-2-.8-2-1.6z"></path>
        <path fill="#222" fill-opacity=".5" d="M226.5 94l-.6-4.7c-.1-1-.9-1.7-2.3-1.7H217c-1.4 0-2 .4-2 1.6l.5 4.8c0 .8 0.2 1.6 2.2 1.6h6.8c1.6 0 2-.8 2-1.6z"></path>
        <path fill="#222" fill-opacity=".5" d="M313.7 94l-1.5-4.9c-.4-1.2-1-1.5-2.6-1.6h-6.3c-1.7 0-2 .4-1.7 1.6L303 94c.4 1.2 0.9 1.6 2.6 1.6h6.5c1.5 0 2-.5 1.7-1.6z"></path>
        <path fill="#222" fill-opacity=".5" d="M064.3 13c-.4 1.2 0 1.6 1 1.6h6c1.5 0 1.7-.6 2-1.6l.6-2.1c.3-1.2 0-1.6-1.1-1.6H67c-1 0-1.6 0.4-2 1.6"></path>
        <path fill="#222" fill-opacity=".5" d="M136.8 13l.2-2.2c.1-1 .7-1.6 1.8-1.6h5.7c1 0 1.6 0.5 1.5 1.6l-.2 2.1c0 1-.5 1.6-1.7 1.6h-6c-1.2 0-1.4-.7-1.3-1.5z"></path>
        <path fill="#222" fill-opacity=".5" d="M217.2 13L217 11c-.1-1-.7-1.6-1.8-1.6h-5.7c-1 0-1.5 0.5-1.5 1.6l.2 2.1c0 1 .5 1.6 1.8 1.6h5.8c1.3 0 1.6-.7 1.4-1.5z"></path>
        <path fill="#222" fill-opacity=".5" d="M289.2 13c.3 1.2 0 1.6-1 1.6h-6c-1.5 0-1.8-.6-2-1.6l-.7-2.1c-.3-1.2 0-1.6 1.2-1.6h5.7c1 0 1.7 0.4 2 1.6"></path>
        <path fill="#222" d="M039.8 93l1.4-4.8c.5-1.3 1.1-1.6 2.6-1.6h6.4c1.6 0 2 .3 1.6 1.6l-1.3 4.7c-.4 1.2-.8 1.6-2.6 1.6h-6.5c-1.5 0-2-.4-1.6-1.5z"></path>
        <path fill="#222" d="M127.6 93l.5-4.7c.1-1 .9-1.6 2.3-1.6h6.6c1.5 0 2.1 0.3 2 1.6l-.4 4.8c-.1 0.8-.3 1.6-2.3 1.6h-6.8c-1.6 0-2-.9-2-1.7z"></path>
        <path fill="#222" d="M226.5 93l-.6-4.7c-.1-1-.9-1.6-2.3-1.6H217c-1.4 0-2 .3-2 1.6l.5 4.8c0 .8 0.2 1.6 2.2 1.6h6.8c1.6 0 2-.9 2-1.7z"></path>
        <path fill="#222" d="M313.7 93l-1.5-4.8c-.4-1.3-1-1.6-2.6-1.6h-6.3c-1.7 0-2 .3-1.7 1.6l1.3 4.7c.4 1.2 0.9 1.6 2.6 1.6h6.5c1.5 0 2-.4 1.7-1.5z"></path>
        <path fill="#222" d="M136.8 12l.2-2.2c.1-1 .7-1.6 1.8-1.6h5.7c1 0 1.6 0.6 1.5 1.6l-.2 2.2c0 .9-.5 1.5-1.7 1.5h-6c-1.2 0-1.4-.7-1.3-1.5z"></path>
        <path fill="#222" d="M064.3 12c-.4 1.2 0 1.5 1 1.5h6c1.5 0 1.7-.6 2-1.5L74 10c.3-1.1 0-1.6-1.1-1.6H67c-1 0-1.6 0.4-2 1.7z"></path>
        <path fill="#222" d="M217.2 12L217 10c-.1-1-.7-1.6-1.8-1.6h-5.7c-1 0-1.5 0.6-1.5 1.6l.2 2.2c0 .9 0.5 1.5 1.8 1.5h5.8c1.3 0 1.6-.7 1.4-1.5z"></path>
        <path fill="#222" d="M289.2 12c.3 1.2 0 1.5-1 1.5h-6c-1.5 0-1.8-.6-2-1.5l-.7-2.2c-.3-1.1 0-1.6 1.2-1.6h5.7c1 0 1.7 0.4 2 1.7z"></path>
        
        <!-- POWER -->
        <path fill="#f40" fill-opacity=".5" d="M36.4 13l.8-2c.4-1 .9-1.7 2.1-1.7h5c1.2 0 1.4 0.7 1 1.6l-.6 2.1c-.4 0.9-.8 1.6-2.2 1.6h-5.1c-1 0-1.3-.6-1-1.6z"></path>
        <path fill="#f40" fill-opacity=".5" d="M50.0 13c-.4 1 0 1.5 1 1.5l5.8 0.1c1.3 0 1.7-.5 2.1-1.6l.7-2.1c.3-1 0-1.6-1.1-1.6h-5.7c-1.3 0-1.7 0.5-2.1 1.6z"></path>
        <path fill="#f40" fill-opacity=".5" d="M93.2 13l.5-2.1c.3-1.2 0.9-1.6 2-1.6h6.2c1.4 0 1.5 0.5 1.2 1.6l-.4 2.1c-.2 1.2-.7 1.6-2 1.6h-6.3c-1 0-1.5-.4-1.2-1.6z"></path>
        <path fill="#f40" d="M36.4 12l.8-2.1c.4-1 .9-1.6 2.1-1.6h5c1.2 0 1.4 0.6 1 1.6l-.6 2c-.4 1-.8 1.6-2.2 1.6h-5.1c-1 0-1.3-.6-1-1.5z"></path>
        <path fill="#f40" d="M50.0 12c-.4 1 0 1.5 1 1.5h5.8c1.3 0 1.7-.4 2.1-1.5l.7-2.2c.3-1 0-1.5-1.1-1.6h-5.7c-1.3 0-1.7 0.6-2.1 1.6z"></path>
        <path fill="#f40" d="M93.2 12l.5-2c.3-1.3 0.9-1.6 2-1.6h6.2c1.4 0 1.5 0.5 1.2 1.5l-.4 2.1c-.2 1.3-.7 1.6-2 1.7h-6.3c-1 0-1.5-.5-1.2-1.7z"></path>
        
        <!-- GPIO -->
        <path id="ib-bkg-GP0" d="M006.4 94c-.3 0.8 0 1.5 1 1.5h7c1 0 1.8-.7 2.1-1.6l1.7-4.8c.3-.8-.2-1.5-1-1.5h-6.8c-1.2 0-1.8 0.5-2.2 1.5z" class="bkg pin-gpio" fill="rgb(255,71,5)"></path>
        <path id="ib-bkg-GP1" d="M022.8 94c-.4 1 .3 1.5 1.5 1.5h6.5c1.4 0 2.1-.3 2.6-1.6l1.5-4.8c.3-1-.2-1.5-1.6-1.6H27c-1.5 0.1-2.2 0.5-2.6 1.6z" class="bkg pin-gpio" fill="rgb(255,71,5)"></path>
        <path id="ib-bkg-GP2" d="M057.3 94c-.3 1.1 0.3 1.6 1.7 1.6H65c1.6 0 2.2-.4 2.5-1.6l1.2-4.7c.4-1.3-.3-1.6-1.7-1.6h-6c-1.7 0-2.2 0.3-2.6 1.6z" class="bkg pin-gpio" fill="rgb(255,71,5)"></path>
        <path id="ib-bkg-GP3" d="M074.4 94l1.1-4.8c.3-1 1-1.6 2.5-1.6h6.6c1.5 0 2 .2 1.8 1.5l-1 4.8c-.3 1-.9 1.6-2.5 1.6h-6.7c-1.7 0-2-.5-1.8-1.6z" class="bkg pin-gpio" fill="rgb(255,71,5)"></path>
        <path id="ib-bkg-GP4" d="M092.1 94l1-4.9c.2-1 .8-1.5 2.4-1.6h6.6c2 0 2 .7 1.8 1.7l-.8 4.7c-.3 1.2-.9 1.6-2.4 1.6H94c-1.8 0-2.1-.4-1.9-1.6z" class="bkg pin-gpio" fill="rgb(255,71,5)"></path>
        <path id="ib-bkg-GP5" d="M110.0 94l.8-4.8c0-1 1-1.6 2.3-1.7h6.5c1.2 0 2 .4 1.9 1.6l-.7 4.8c0 .8-.5 1.6-2.3 1.6H112c-1.7 0-2-.8-1.9-1.6z" class="bkg pin-gpio" fill="rgb(255,71,5)"></path>
        <path id="ib-bkg-GP6" d="M145.4 94l.3-4.9c0-1 .7-1.5 2.2-1.5h6.5c1.7 0 2.1 0.6 2 1.6l-.2 4.7c0 .9-.3 1.6-2.2 1.6h-6.7c-1.7 0-2-.7-2-1.6" class="bkg pin-gpio" fill="rgb(255,71,5)"></path>
        <path id="ib-bkg-GP7" d="M162.9 94l.1-4.8c0-1 .8-1.6 2.2-1.7h6.6c1.5 0 2.1 0.5 2.1 1.6V94c0 1.2-.8 1.6-2.2 1.6h-6.8c-1.1 0-2-.5-2-1.6" class="bkg pin-gpio" fill="rgb(255,71,5)"></path>
        <path id="ib-bkg-GP8" d="M191.1 94l-.1-4.8c0-1-.8-1.6-2.2-1.7h-6.6c-1.5 0-2.1 0.5-2.1 1.6V94c0 1.2 0.8 1.6 2.2 1.6h6.8c1.2 0 2-.5 2-1.6z" class="bkg pin-gpio" fill="rgb(255,71,5)"></path>
        <path id="ib-bkg-GP9" d="M208.7 94l-.4-4.9c0-1-.7-1.5-2.2-1.5h-6.5c-1.6 0-2 .6-2 1.6l.2 4.7c0 .9 0.3 1.6 2.2 1.6h6.7c1.8 0 2-.7 2-1.6" class="bkg pin-gpio" fill="rgb(255,71,5)"></path>
        <path id="ib-bkg-GP10" d="M244.0 94l-.8-4.8c0-1-1-1.6-2.3-1.7h-6.4c-1.3 0-2.1 0.4-2 1.6l.7 4.8c.1 0.8.5 1.6 2.3 1.6h6.6c1.8 0 2-.8 1.9-1.6z" class="bkg pin-gpio" fill="rgb(255,71,5)"></path>
        <path id="ib-bkg-GP11" d="M261.3 94l-1-4.9c-.1-1-.7-1.5-2.3-1.6h-6.7c-1.9 0-2 .7-1.8 1.7l.8 4.7c.3 1.2 1 1.6 2.4 1.6h6.7c1.9 0 2.2-.4 2-1.6" class="bkg pin-gpio" fill="rgb(255,71,5)"></path>
        <path id="ib-bkg-GP12" d="M279.0 94l-1-4.8c-.3-1-1.1-1.6-2.6-1.6H269c-1.5 0-2.1 0.2-1.8 1.5l1 4.8c.2 1 .8 1.6 2.5 1.6h6.7c1.6 0 2-.5 1.7-1.6" class="bkg pin-gpio" fill="rgb(255,71,5)"></path>
        <path id="ib-bkg-GP13" d="M296.2 94c.3 1.1-.4 1.6-1.7 1.6h-6.2c-1.6 0-2.1-.4-2.5-1.6l-1.2-4.7c-.3-1.3 0.3-1.6 1.7-1.6h6c1.8 0 2.2 0.3 2.6 1.6" class="bkg pin-gpio" fill="rgb(255,71,5)"></path>
        <path id="ib-bkg-GP14" d="M330.7 94c.4 1-.4 1.5-1.5 1.5h-6.6c-1.3 0-2-.3-2.6-1.6l-1.5-4.8c-.3-1 .2-1.5 1.7-1.6h6.3c1.5 0.1 2.2 0.5 2.6 1.6" class="bkg pin-gpio" fill="rgb(255,71,5)"></path>
        <path id="ib-bkg-GP15" d="M347.0 94c.3 0.8 0 1.5-1 1.5h-7c-1 0-1.7-.7-2-1.6l-1.8-4.8c-.3-.8 0.2-1.5 1.1-1.5h6.8c1.3 0 1.8 0.5 2.2 1.5" class="bkg pin-gpio" fill="rgb(255,71,5)"></path>
        <path id="ib-bkg-GP28" d="M122.5 13l.4-2.1c0-1 .7-1.6 1.8-1.6h5.8c.8 0 1.5 0.3 1.3 1.6l-.3 2.1c0 1-.6 1.6-1.8 1.7h-5.9c-1.2 0-1.5-.7-1.3-1.7z" class="bkg pin-gpio" fill="rgb(255,71,5)"></path>
        <path id="ib-bkg-GP27" d="M151.3 13l.2-2.2c0-1.1 0.7-1.6 1.7-1.6h5.7c1 0 1.6 0.5 1.6 1.6l-.1 2.1c0 1-.5 1.6-1.7 1.6h-5.9c-1 0-1.5-.5-1.5-1.5" class="bkg pin-gpio" fill="rgb(255,71,5)"></path>
        <path id="ib-bkg-GP26" d="M165.7 13v-2.1c.1-1.2 0.7-1.6 1.7-1.6h5.6c1.2 0 1.6 0.6 1.6 1.6v2.1c0 1-.6 1.6-1.7 1.6h-5.7c-1.1 0-1.5-.7-1.5-1.6" class="bkg pin-gpio" fill="rgb(255,71,5)"></path>
        <path id="ib-bkg-GP22" d="M202.7 13l-.2-2.2c0-1.1-.6-1.6-1.7-1.6h-5.7c-1 0-1.6 0.5-1.5 1.6v2.1c0 1 .6 1.6 1.8 1.6h5.8c1.1 0 1.6-.5 1.5-1.5z" class="bkg pin-gpio" fill="rgb(255,71,5)"></path>
        <path id="ib-bkg-GP21" d="M231.5 13l-.3-2.1c-.2-1-.7-1.6-1.9-1.6h-5.8c-.8 0-1.5 0.3-1.3 1.6l.3 2.1c.1 1 .6 1.6 1.8 1.7h5.9c1.2 0 1.5-.7 1.3-1.7z" class="bkg pin-gpio" fill="rgb(255,71,5)"></path>
        <path id="ib-bkg-GP20" d="M273.5 14.8c1.5 0 1.5-.6 1.2-1.6l-.6-2c-.3-1.2-.8-1.7-2-1.7h-5.7c-1 0-1.6 0.5-1.4 1.6l.6 2.1c.3 1.2 0.9 1.6 2.1 1.6" class="bkg pin-gpio" fill="rgb(255,71,5)"></path>
        <path id="ib-bkg-GP19" d="M260.2 13l-.5-2.1c-.2-1.2-.8-1.6-2-1.6h-6.2c-1.3 0-1.4 0.5-1.2 1.6l.5 2.1c.2 1.2 0.7 1.6 1.9 1.6h6.3c1.1 0 1.5-.4 1.2-1.6" class="bkg pin-gpio" fill="rgb(255,71,5)"></path>
        <path id="ib-bkg-GP18" d="M245.7 13l-.5-2.1c-.2-1-.6-1.6-1.8-1.6h-6c-1.2 0-1.5 0.7-1.2 1.6l.3 2.1c0 1 .5 1.6 1.8 1.6h6c1.6 0 1.6-.7 1.4-1.6" class="bkg pin-gpio" fill="rgb(255,71,5)"></path>
        <path id="ib-bkg-GP17" d="M303.4 13c.4 1 .1 1.5-1 1.5l-5.7 0.1c-1.3 0-1.7-.5-2.2-1.6l-.6-2.1c-.4-1-.1-1.6 1-1.6h5.7c1.4 0 1.8 0.5 2.2 1.6z" class="bkg pin-gpio" fill="rgb(255,71,5)"></path>
        <path id="ib-bkg-GP16" d="M317.0 13l-.7-2c-.4-1-1-1.7-2.2-1.7h-5c-1.1 0-1.4 0.7-1 1.6l.7 2.1c.3 0.9.7 1.6 2.1 1.6h5.2c1 0 1.3-.6 0.9-1.6" class="bkg pin-gpio" fill="rgb(255,71,5)"></path>
        <path id="ib-pin-GP0" d="M006.4 93c-.3 1 0 1.6 1 1.6h7c1 0 1.8-.7 2.1-1.6l1.7-4.8c.3-.8-.2-1.5-1-1.5h-6.8c-1.2 0-1.8 0.5-2.2 1.6z" class="pin-gpio" fill="rgb(255,71,5)"></path>
        <path id="ib-pin-GP1" d="M022.8 93c-.4 1.2 0.3 1.6 1.5 1.6h6.5c1.4 0 2.1-.3 2.6-1.6l1.5-4.7c.3-1.1-.2-1.6-1.6-1.6H27c-1.5 0-2.2 0.5-2.6 1.6z" class="pin-gpio" fill="rgb(255,71,5)"></path>
        <path id="ib-pin-GP2" d="M057.3 93c-.3 1.1 0.3 1.6 1.7 1.6H65c1.6 0 2.2-.4 2.5-1.6l1.2-4.7c.4-1.3-.3-1.6-1.7-1.6h-6c-1.7 0-2.2 0.3-2.6 1.6" class="pin-gpio" fill="rgb(255,71,5)"></path>
        <path id="ib-pin-GP3" d="M074.4 93l1.1-4.7c.3-1 1-1.6 2.5-1.6h6.6c1.5 0 2 .2 1.8 1.6l-1 4.7c-.3 1-.9 1.6-2.5 1.6h-6.7c-1.7 0-2-.5-1.8-1.6z" class="pin-gpio" fill="rgb(255,71,5)"></path>
        <path id="ib-pin-GP4" d="M092.1 93l1-4.8c.2-1 .8-1.5 2.4-1.6h6.6c2 0 2 .7 1.8 1.7l-.8 4.7c-.3 1.2-.9 1.6-2.4 1.6H94c-1.8 0-2.1-.4-1.9-1.6" class="pin-gpio" fill="rgb(255,71,5)"></path>
        <path id="ib-pin-GP5" d="M110.0 93l.8-4.8c0-1 1-1.6 2.3-1.6h6.5c1.2 0 2 .4 1.9 1.6l-.7 4.7c0 .8-.5 1.6-2.3 1.6H112c-1.7 0-2-.8-1.9-1.5z" class="pin-gpio" fill="rgb(255,71,5)"></path>
        <path id="ib-pin-GP6" d="M145.4 93l.3-4.7c0-1 .7-1.6 2.2-1.6h6.5c1.7 0 2.1 0.6 2 1.6l-.2 4.7c0 1-.3 1.6-2.2 1.6h-6.7c-1.7 0-2-.7-2-1.6z" class="pin-gpio" fill="rgb(255,71,5)"></path>
        <path id="ib-pin-GP7" d="M162.9 93l.1-4.7c0-1 .8-1.6 2.2-1.6h6.6c1.5 0 2.1 0.4 2.1 1.5v4.8c0 1.2-.8 1.6-2.2 1.6h-6.8c-1.1 0-2-.5-2-1.6" class="pin-gpio" fill="rgb(255,71,5)"></path>
        <path id="ib-pin-GP8" d="M191.1 93l-.1-4.7c0-1-.8-1.6-2.2-1.6h-6.6c-1.5 0-2.1 0.4-2.1 1.5v4.8c0 1.2 0.8 1.6 2.2 1.6h6.8c1.2 0 2-.5 2-1.6" class="pin-gpio" fill="rgb(255,71,5)"></path>
        <path id="ib-pin-GP9" d="M208.7 93l-.4-4.7c0-1-.7-1.6-2.2-1.6h-6.5c-1.6 0-2 .6-2 1.6l.2 4.7c0 1 .3 1.6 2.2 1.6h6.7c1.8 0 2-.7 2-1.6" class="pin-gpio" fill="rgb(255,71,5)"></path>
        <path id="ib-pin-GP10" d="M244.0 93l-.8-4.8c0-1-1-1.6-2.3-1.6h-6.4c-1.3 0-2.1 0.4-2 1.6l.7 4.7c.1 0.8.5 1.6 2.3 1.6h6.6c1.8 0 2-.8 1.9-1.5z" class="pin-gpio" fill="rgb(255,71,5)"></path>
        <path id="ib-pin-GP11" d="M261.3 93l-1-4.8c-.1-1-.7-1.5-2.3-1.6h-6.7c-1.9 0-2 .7-1.8 1.7l.8 4.7c.3 1.2 1 1.6 2.4 1.6h6.7c1.9 0 2.2-.4 2-1.6" class="pin-gpio" fill="rgb(255,71,5)"></path>
        <path id="ib-pin-GP12" d="M279.0 93l-1-4.7c-.3-1-1.1-1.6-2.6-1.6H269c-1.5 0-2.1 0.2-1.8 1.6l1 4.7c.2 1 .8 1.6 2.5 1.6h6.7c1.6 0 2-.5 1.7-1.6" class="pin-gpio" fill="rgb(255,71,5)"></path>
        <path id="ib-pin-GP13" d="M296.2 93c.3 1.1-.4 1.6-1.7 1.6h-6.2c-1.6 0-2.1-.4-2.5-1.6l-1.2-4.7c-.3-1.3 0.3-1.6 1.7-1.6h6c1.8 0 2.2 0.3 2.6 1.6" class="pin-gpio" fill="rgb(255,71,5)"></path>
        <path id="ib-pin-GP14" d="M330.7 93c.4 1.2-.4 1.6-1.5 1.6h-6.6c-1.3 0-2-.3-2.6-1.6l-1.5-4.7c-.3-1.1 0.2-1.6 1.7-1.6h6.3c1.5 0 2.2 0.5 2.6 1.6" class="pin-gpio" fill="rgb(255,71,5)"></path>
        <path id="ib-pin-GP15" d="M347.0 93c.3 1 0 1.6-1 1.6h-7c-1 0-1.7-.7-2-1.6l-1.8-4.8c-.3-.8 0.2-1.5 1.1-1.5h6.8c1.3 0 1.8 0.5 2.2 1.6" class="pin-gpio" fill="rgb(255,71,5)"></path>
        <path id="ib-pin-GP28" d="M122.5 12l.4-2c0-1 .7-1.6 1.8-1.6h5.8c.8 0 1.5 0.3 1.3 1.6l-.3 2.1c0 1-.6 1.7-1.8 1.7h-5.9c-1.2 0-1.5-.7-1.3-1.7z" class="pin-gpio" fill="rgb(255,71,5)"></path>
        <path id="ib-pin-GP27" d="M151.3 12l.2-2.2c0-1.1 0.7-1.6 1.7-1.6h5.7c1 0 1.6 0.5 1.6 1.6l-.1 2.1c0 1-.5 1.6-1.7 1.6h-5.9c-1 0-1.5-.5-1.5-1.5" class="pin-gpio" fill="rgb(255,71,5)"></path>
        <path id="ib-pin-GP26" d="M165.7 12V10c.1-1.2 0.7-1.6 1.7-1.6h5.6c1.2 0 1.6 0.6 1.6 1.6v2.1c0 1-.6 1.6-1.7 1.6h-5.7c-1.1 0-1.5-.7-1.5-1.6" class="pin-gpio" fill="rgb(255,71,5)"></path>
        <path id="ib-pin-GP22" d="M202.7 12l-.2-2.2c0-1.1-.6-1.6-1.7-1.6h-5.7c-1 0-1.6 0.5-1.5 1.6v2.1c0 1 .6 1.6 1.8 1.6h5.8c1.1 0 1.6-.5 1.5-1.5z" class="pin-gpio" fill="rgb(255,71,5)"></path>
        <path id="ib-pin-GP21" d="M231.5 12l-.3-2c-.2-1-.7-1.6-1.9-1.6h-5.8c-.8 0-1.5 0.3-1.3 1.6l.3 2.1c.1 1 .6 1.7 1.8 1.7h5.9c1.2 0 1.5-.7 1.3-1.7z" class="pin-gpio" fill="rgb(255,71,5)"></path>
        <path id="ib-pin-GP20" d="M245.7 12l-.5-2c-.2-1-.6-1.7-1.8-1.7h-6c-1.2 0-1.5 0.7-1.2 1.6l.3 2.1c0 1 .5 1.6 1.8 1.7h6c1.6 0 1.6-.8 1.4-1.7" class="pin-gpio" fill="rgb(255,71,5)"></path>
        <path id="ib-pin-GP19" d="M260.2 12l-.5-2c-.2-1.3-.8-1.7-2-1.7h-6.2c-1.3 0-1.4 0.5-1.2 1.6l.5 2.1c.2 1.3 0.7 1.6 1.9 1.7h6.3c1.1 0 1.5-.5 1.2-1.7" class="pin-gpio" fill="rgb(255,71,5)"></path>
        <path id="ib-pin-GP18" d="M273.5 13.8c1.5 0 1.5-.6 1.2-1.6l-.6-2c-.3-1.2-.8-1.7-2-1.7h-5.7c-1 0-1.6 0.5-1.4 1.6l.6 2.1c.3 1.2 0.9 1.6 2.1 1.6" class="pin-gpio" fill="rgb(255,71,5)"></path>
        <path id="ib-pin-GP17" d="M303.4 12c.4 1 .1 1.6-1 1.6h-5.7c-1.3 0-1.7-.5-2.2-1.6L294 10c-.4-1-.1-1.6 1-1.6h5.7c1.4 0 1.8 0.5 2.2 1.6z" class="pin-gpio" fill="rgb(255,71,5)"></path>
        <path id="ib-pin-GP16" d="M317.0 12l-.7-2c-.4-1-1-1.6-2.2-1.7h-5c-1.1 0-1.4 0.7-1 1.6l.7 2.1c.3 1 .7 1.6 2.1 1.6h5.2c1 0 1.3-.6 0.9-1.6" class="pin-gpio" fill="rgb(255,71,5)"></path>
        
        <path fill="#820" d="M-03.5 45.7 l-0.2 5 -4.4 10.4 0-4.4 z"></path>
        <path fill="#b30" d="M-08.1 56.7 h-15 l 0.1 4.4 14.9 0 z"></path>
        <path fill="#cb0" d="M-15.3 73.6 l4.7 -10.9 0.1 4.6 -4.7 11.2 z"></path>
        <path fill="#f40" d="M-08.1 56.7 H-23.1 l 5 -11.1 14.62 0.1 z"></path>
        <path fill="#fd0" d="M-15.3 73.6 l0.1 4.8 -15.3 0.2 -0.2 -5 z"></path>
        <path fill="#fe7" d="M-15.3 73.6 h -15.5 l 5 -10.9 h 15.1 z"></path>
        <path fill="#111" d="M-22.6 90.6 l0.1 5 -15.8 0.1 -0.2 -5 z"></path>
        <path fill="#222" d="M-22.6 90.6 l4.2 -9.9 h -15.7 l -4.4 10 z"></path>
        <path fill="#000" d="M-18.4 80.7 l0 4.8 -4.2 10.1 -0.1 -5 z"></path>
        
        <text class="pin-label" x="-79" y="90" fill="#000">GROUND</text>
        <text class="pin-label" x="-75" y="71" fill="#880">GPIO PINS</text>
        <text class="pin-label" x="-58" y="54" fill="#f40">POWER</text>
        
        <text class="pin-label" x="009" y="111" fill="#880">0</text>
        <text class="pin-label" x="027" y="111" fill="#880">1</text>
        <text class="pin-label" x="043" y="111" fill="#000">G</text>
        <text class="pin-label" x="061" y="111" fill="#880">2</text>
        <text class="pin-label" x="078" y="111" fill="#880">3</text>
        <text class="pin-label" x="096" y="111" fill="#880">4</text>
        <text class="pin-label" x="114" y="111" fill="#880">5</text>
        <text class="pin-label" x="132" y="111" fill="#000">G</text>
        <text class="pin-label" x="149" y="111" fill="#880">6</text>
        <text class="pin-label" x="167" y="111" fill="#880">7</text>
        <text class="pin-label" x="184" y="111" fill="#880">8</text>
        <text class="pin-label" x="202" y="111" fill="#880">9</text>
        <text class="pin-label" x="219" y="111" fill="#000">G</text>
        <text class="pin-label" x="236" y="111" fill="#880">10</text>
        <text class="pin-label" x="255" y="111" fill="#880">11</text>
        <text class="pin-label" x="272" y="111" fill="#880">12</text>
        <text class="pin-label" x="289" y="111" fill="#880">13</text>
        <text class="pin-label" x="307" y="111" fill="#000">G</text>
        <text class="pin-label" x="325" y="111" fill="#880">14</text>
        <text class="pin-label" x="340" y="111" fill="#880">15</text>
        <text class="pin-label" x="038" y="4" fill="#f40">5V</text>
        <text class="pin-label" x="052" y="4" fill="#f40">5V</text>
        <text class="pin-label" x="068" y="4" fill="#000">G</text>
        <text class="pin-label" x="093" y="4" fill="#f40">3.3V</text>
        <text class="pin-label" x="123" y="4" fill="#880">A2</text>
        <text class="pin-label" x="139" y="4" fill="#000">G</text>
        <text class="pin-label" x="152" y="4" fill="#880">A1</text>
        <text class="pin-label" x="165" y="4" fill="#880">A0</text>
        <text class="pin-label" x="194" y="4" fill="#880">22</text>
        <text class="pin-label" x="210" y="4" fill="#000">G</text>
        <text class="pin-label" x="222" y="4" fill="#880">21</text>
        <text class="pin-label" x="236" y="4" fill="#880">20</text>
        <text class="pin-label" x="250" y="4" fill="#880">19</text>
        <text class="pin-label" x="265" y="4" fill="#880">18</text>
        <text class="pin-label" x="280" y="4" fill="#000">G</text>
        <text class="pin-label" x="294" y="4" fill="#880">17</text>
        <text class="pin-label" x="308" y="4" fill="#880">16</text>
        <text class="pin-label" x="45" y="80" fill="rgba(255,255,255,0.4)">LED:25</text></svg>