<svg xmlns="http://www.w3.org/2000/svg" viewBox="0 0 928 370.6">
  <defs/>
  <path fill="#007000" d="M914.1 26.5c0 5.3-4.3 9.6-9.5 9.6h-.6a9.6 9.6 0 01-9.6-9.6v-25h-24.6v25c0 5.3-4.3 9.6-9.6 9.6h-.5a9.6 9.6 0 01-9.6-9.6v-25h-24.6v25c0 5.3-4.3 9.6-9.6 9.6h-.6a9.6 9.6 0 01-9.5-9.6v-25H781v25c0 5.3-4.3 9.6-9.5 9.6h-.6a9.6 9.6 0 01-9.6-9.6v-25h-24.6v25c0 5.3-4.3 9.6-9.6 9.6h-.5a9.6 9.6 0 01-9.6-9.6v-25h-24.6v25c0 5.3-4.3 9.6-9.6 9.6h-.6a9.6 9.6 0 01-9.5-9.6v-25H648v25c0 5.3-4.3 9.6-9.5 9.6h-.6a9.6 9.6 0 01-9.6-9.6v-25h-24.6v25c0 5.3-4.3 9.6-9.5 9.6h-.6a9.6 9.6 0 01-9.6-9.6v-25h-24.6v25c0 5.3-4.3 9.6-9.6 9.6h-.6a9.6 9.6 0 01-9.5-9.6v-25h-24.6v25c0 5.3-4.3 9.6-9.6 9.6h-.6a9.6 9.6 0 01-9.5-9.6v-25h-24.7v25c0 5.3-4.3 9.6-9.5 9.6h-.6a9.6 9.6 0 01-9.6-9.6v-25h-24.6v25c0 5.3-4.3 9.6-9.6 9.6h-.5a9.6 9.6 0 01-9.6-9.6v-25h-24.6v25c0 5.3-4.3 9.6-9.6 9.6h-.6a9.6 9.6 0 01-9.5-9.6v-25h-24.7v25c0 5.3-4.3 9.6-9.5 9.6h-.6a9.6 9.6 0 01-9.6-9.6v-25h-24.6v25c0 5.3-4.3 9.6-9.6 9.6h-.5a9.6 9.6 0 01-9.6-9.6v-25h-24.6v25c0 5.3-4.3 9.6-9.6 9.6h-.6a9.6 9.6 0 01-9.5-9.6v-25h-24.7v25c0 5.3-4.3 9.6-9.5 9.6h-.6a9.6 9.6 0 01-9.6-9.6v-25h-24.6v25c0 5.3-4.3 9.6-9.6 9.6h-.5a9.6 9.6 0 01-9.6-9.6v-25h-24.6v25c0 5.3-4.3 9.6-9.6 9.6h-.6a9.6 9.6 0 01-9.5-9.6v-25H71.8v25c0 5.3-4.3 9.6-9.5 9.6h-.6a9.6 9.6 0 01-9.6-9.6v-25H51a14 14 0 00-14 14v339.4a14 14 0 0013.3 13.9v-27.1c0-5.3 4.3-9.6 9.6-9.6h.6c5.2 0 9.5 4.3 9.5 9.6v27h24.7v-27c0-5.3 4.3-9.6 9.5-9.6h.6c5.3 0 9.6 4.3 9.6 9.6v27H139v-27c0-5.3 4.3-9.6 9.6-9.6h.5c5.3 0 9.6 4.3 9.6 9.6v27h24.6v-27c0-5.3 4.3-9.6 9.6-9.6h.6c5.2 0 9.5 4.3 9.5 9.6v27h24.7v-27c0-5.3 4.3-9.6 9.5-9.6h.6c5.3 0 9.6 4.3 9.6 9.6v27H272v-27c0-5.3 4.3-9.6 9.5-9.6h.6c5.3 0 9.6 4.3 9.6 9.6v27h24.6v-27c0-5.3 4.3-9.6 9.6-9.6h.6c5.2 0 9.5 4.3 9.5 9.6v27h24.7v-27c0-5.3 4.3-9.6 9.5-9.6h.6c5.2 0 9.5 4.3 9.5 9.6v27H405v-27c0-5.3 4.3-9.6 9.5-9.6h.6c5.3 0 9.6 4.3 9.6 9.6v27h24.6v-27c0-5.3 4.3-9.6 9.6-9.6h.6c5.2 0 9.5 4.3 9.5 9.6v27h24.6v-27c0-5.3 4.3-9.6 9.6-9.6h.6c5.2 0 9.5 4.3 9.5 9.6v27H538v-27c0-5.3 4.3-9.6 9.5-9.6h.6c5.3 0 9.6 4.3 9.6 9.6v27h24.6v-27c0-5.3 4.3-9.6 9.6-9.6h.5c5.3 0 9.6 4.3 9.6 9.6v27h24.6v-27c0-5.3 4.3-9.6 9.6-9.6h.6c5.2 0 9.5 4.3 9.5 9.6v27H671v-27c0-5.3 4.3-9.6 9.5-9.6h.6c5.2 0 9.5 4.3 9.5 9.6v27h24.7v-27c0-5.3 4.3-9.6 9.5-9.6h.6c5.3 0 9.6 4.3 9.6 9.6v27h24.6v-27c0-5.3 4.3-9.6 9.6-9.6h.6c5.2 0 9.5 4.3 9.5 9.6v27H804v-27c0-5.3 4.3-9.6 9.6-9.6h.6c5.2 0 9.5 4.3 9.5 9.6v27h24.7v-27c0-5.3 4.3-9.6 9.5-9.6h.6c5.3 0 9.6 4.3 9.6 9.6v27h24.6v-27c0-5.3 4.3-9.6 9.6-9.6h.5c5.3 0 9.6 4.3 9.6 9.6v27h.6a14 14 0 0014-13.8V239.8h-27a9.6 9.6 0 01-9.5-9.6v-.5c0-5.3 4.3-9.6 9.5-9.6h26.7v-24.6H900a9.6 9.6 0 01-9.5-9.6v-.6c0-5.2 4.3-9.5 9.5-9.5h26.7V151H900a9.6 9.6 0 01-9.5-9.5v-.6c0-5.3 4.3-9.6 9.5-9.6h26.7v-116A14 14 0 00914 1.5v25zm-864.3 258a22.6 22.6 0 1145.2 0 22.6 22.6 0 01-45.2 0zm864.3-1a22.6 22.6 0 11-45.2 0 22.6 22.6 0 0145.2 0zm-1.1-197a22.6 22.6 0 11-45.2 0 22.6 22.6 0 0145.2 0zM95 85.3a22.6 22.6 0 11-45.2 0 22.6 22.6 0 0145.2 0z"/>
  <path fill="#d4aa00" d="M48.3 344v23c0 1.3.2 2.4.5 3.5h4.1a8.1 8.1 0 1116.2 0h4.2c.3-1 .5-2.2.5-3.5v-23a12.8 12.8 0 00-25.5 0zm20.8 0a8.1 8.1 0 11-16.2 0 8.1 8.1 0 0116.2 0zM92.7 344v23c0 1.3.2 2.4.5 3.5h4.1a8.1 8.1 0 1116.3 0h4c.4-1 .6-2.2.6-3.5v-23a12.8 12.8 0 00-25.5 0zm20.8 0a8.1 8.1 0 11-16.2 0 8.1 8.1 0 0116.2 0zM136.7 344v23c0 1.3.2 2.4.5 3.5h4.2a8.1 8.1 0 1116.2 0h4.1c.3-1 .5-2.2.5-3.5v-35.8h-25.5V344zm20.9 0a8.1 8.1 0 11-16.2 0 8.1 8.1 0 0116.2 0zM181 344v23c0 1.3.1 2.4.4 3.5h4.2a8.1 8.1 0 1116.2 0h4.1c.3-1 .5-2.2.5-3.5v-23c0-7-5.7-12.8-12.7-12.8-7 0-12.8 5.8-12.8 12.8zm20.8 0a8.1 8.1 0 11-16.2 0 8.1 8.1 0 0116.2 0zM225.3 344v23c0 1.3.2 2.4.5 3.5h4.2a8.1 8.1 0 1116.2 0h4.1c.3-1 .5-2.2.5-3.5v-23c0-7-5.7-12.8-12.7-12.8-7 0-12.8 5.8-12.8 12.8zm20.9 0a8.1 8.1 0 11-16.2 0 8.1 8.1 0 0116.2 0zM270.2 344v23c0 1.3.2 2.4.5 3.5h4.1a8.1 8.1 0 1116.2 0h4.2c.3-1 .5-2.2.5-3.5v-23a12.8 12.8 0 00-25.5 0zm20.8 0a8.1 8.1 0 11-16.2 0 8.1 8.1 0 0116.2 0zM314.6 344v23c0 1.3.2 2.4.5 3.5h4.1a8.1 8.1 0 1116.3 0h4c.4-1 .6-2.2.6-3.5v-23a12.8 12.8 0 00-25.5 0zm20.8 0a8.1 8.1 0 11-16.2 0 8.1 8.1 0 0116.3 0zM358 344v23c0 1.3.2 2.4.5 3.5h4.1a8.1 8.1 0 1116.3 0h4.1c.3-1 .5-2.2.5-3.5v-35.8H358V344zm20.9 0a8.1 8.1 0 11-16.3 0 8.1 8.1 0 0116.3 0zM402 344v23c0 1.3.2 2.4.6 3.5h4.1a8.1 8.1 0 1116.2 0h4.2c.3-1 .5-2.2.5-3.5v-23a12.8 12.8 0 00-25.5 0zm21 0a8.1 8.1 0 11-16.3 0 8.1 8.1 0 0116.2 0zM446.5 344v23c0 1.3.2 2.4.5 3.5h4.1a8.1 8.1 0 1116.2 0h4.2c.3-1 .5-2.2.5-3.5v-23a12.8 12.8 0 00-25.5 0zm20.8 0a8.1 8.1 0 11-16.2 0 8.1 8.1 0 0116.2 0zM491.3 344v23c0 1.3.2 2.4.5 3.5h4.2a8.1 8.1 0 1116.2 0h4.1c.3-1 .5-2.2.5-3.5v-23c0-7-5.7-12.8-12.7-12.8-7 0-12.8 5.8-12.8 12.8zm20.9 0a8.1 8.1 0 11-16.2 0 8.1 8.1 0 0116.2 0zM535.7 344v23c0 1.3.2 2.4.5 3.5h4.2a8.1 8.1 0 1116.2 0h4.1c.4-1 .5-2.2.5-3.5v-23c0-7-5.7-12.8-12.7-12.8-7 0-12.8 5.8-12.8 12.8zm20.9 0a8.1 8.1 0 11-16.2 0 8.1 8.1 0 0116.2 0zM579.1 344v23c0 1.3.2 2.4.5 3.5h4.2a8.1 8.1 0 1116.2 0h4.1c.4-1 .5-2.2.5-3.5v-35.8h-25.4V344zm21 0a8.1 8.1 0 11-16.3 0 8.1 8.1 0 0116.2 0zM624.4 344v23c0 1.3.2 2.4.5 3.5h4.2a8.1 8.1 0 1116.2 0h4.1c.3-1 .5-2.2.5-3.5v-23c0-7-5.7-12.8-12.7-12.8-7 0-12.8 5.8-12.8 12.8zm20.9 0a8.1 8.1 0 11-16.2 0 8.1 8.1 0 0116.2 0zM668.8 344v23c0 1.3.2 2.4.5 3.5h4.2a8.1 8.1 0 1116.2 0h4.1c.4-1 .5-2.2.5-3.5v-23c0-7-5.7-12.8-12.7-12.8-7 0-12.8 5.8-12.8 12.8zm20.9 0a8.1 8.1 0 11-16.2 0 8.1 8.1 0 0116.2 0zM713.7 344v23c0 1.3.2 2.4.5 3.5h4.1a8.1 8.1 0 1116.3 0h4c.4-1 .6-2.2.6-3.5v-23c0-7-5.7-12.8-12.7-12.8-7 0-12.8 5.8-12.8 12.8zm20.8 0a8.1 8.1 0 11-16.2 0 8.1 8.1 0 0116.2 0zM758.1 344v23c0 1.3.2 2.4.5 3.5h4.1a8.1 8.1 0 1116.3 0h4.1c.3-1 .5-2.2.5-3.5v-23c0-7-5.7-12.8-12.7-12.8-7 0-12.8 5.8-12.8 12.8zm20.9 0a8.1 8.1 0 11-16.3 0 8.1 8.1 0 0116.3 0zM801.5 344v23c0 1.3.2 2.4.5 3.5h4.1a8.1 8.1 0 1116.3 0h4.1c.3-1 .5-2.2.5-3.5v-35.8h-25.5V344zm20.9 0a8.1 8.1 0 11-16.2 0 8.1 8.1 0 0116.2 0zM845.5 344v23c0 1.3.2 2.4.5 3.5h4.2a8.1 8.1 0 1116.2 0h4.1c.3-1 .5-2.2.5-3.5v-23c0-7-5.7-12.8-12.7-12.8-7 0-12.8 5.8-12.8 12.8zm20.9 0a8.1 8.1 0 11-16.2 0 8.1 8.1 0 0116.2 0zM890 344v23c0 1.3.1 2.4.4 3.5h4.2a8.1 8.1 0 1116.2 0h4.1c.3-1 .5-2.2.5-3.5v-23c0-7-5.7-12.8-12.7-12.8-7 0-12.8 5.8-12.8 12.8zm20.8 0a8.1 8.1 0 11-16.2 0 8.1 8.1 0 0116.2 0zM901.3 242h23.2c1.2 0 2.3-.1 3.5-.5v-4.1a8.1 8.1 0 110-16.2V217a14 14 0 00-3.5-.5h-23.2a12.8 12.8 0 000 25.5zm0-20.8a8.1 8.1 0 110 16.2 8.1 8.1 0 010-16.2zM901.3 198.6h23.2a14 14 0 003.5-.5V194a8.1 8.1 0 110-16.2v-4.2a14 14 0 00-3.5-.5h-35.9v25.5h12.7zm0-20.8a8.1 8.1 0 110 16.2 8.1 8.1 0 010-16.2zM49 26.6V3.5c0-1.2.1-2.4.4-3.5h4.2a8.1 8.1 0 1016.2 0h4.1c.3 1.1.5 2.3.5 3.5v23.2c0 7-5.7 12.7-12.7 12.7-7 0-12.8-5.7-12.8-12.7zm20.8 0a8.1 8.1 0 10-16.2 0 8.1 8.1 0 0016.2 0zM93.3 26.6V3.5c0-1.2.2-2.4.5-3.5H98a8.1 8.1 0 1016.2 0h4.1c.4 1.1.5 2.3.5 3.5v23.2c0 7-5.7 12.7-12.7 12.7-7 0-12.8-5.7-12.8-12.7zm20.9 0a8.1 8.1 0 10-16.2 0 8.1 8.1 0 0016.2 0zM137.4 26.6V3.5c0-1.2.1-2.4.5-3.5h4.1a8.1 8.1 0 1016.2 0h4.2c.3 1.1.5 2.3.5 3.5v35.9h-25.5V26.6zm20.8 0a8.1 8.1 0 10-16.2 0 8.1 8.1 0 0016.2 0zM181.6 26.6V3.5c0-1.2.1-2.4.5-3.5h4.1a8.1 8.1 0 1016.2 0h4.2c.3 1.1.5 2.3.5 3.5v23.2a12.8 12.8 0 01-25.5 0zm20.8 0a8.1 8.1 0 10-16.2 0 8.1 8.1 0 0016.2 0zM226 26.6V3.5c0-1.2.2-2.4.5-3.5h4.1a8.1 8.1 0 1016.2 0h4.2c.3 1.1.5 2.3.5 3.5v23.2a12.8 12.8 0 01-25.5 0zm20.8 0a8.1 8.1 0 10-16.2 0 8.1 8.1 0 0016.2 0zM270.8 26.6V3.5c0-1.2.2-2.4.5-3.5h4.2a8.1 8.1 0 1016.2 0h4.1c.3 1.1.5 2.3.5 3.5v23.2c0 7-5.7 12.7-12.7 12.7-7 0-12.8-5.7-12.8-12.7zm20.9 0a8.1 8.1 0 10-16.2 0 8.1 8.1 0 0016.2 0zM315.3 26.6V3.5c0-1.2.1-2.4.4-3.5h4.2A8.1 8.1 0 10336 0h4.1c.4 1.1.6 2.3.6 3.5v23.2a12.8 12.8 0 01-25.5 0zm20.8 0a8.1 8.1 0 10-16.2 0 8.1 8.1 0 0016.2 0zM358.7 26.6V3.5c0-1.2.1-2.4.5-3.5h4.1a8.1 8.1 0 1016.2 0h4.2c.3 1.1.5 2.3.5 3.5v35.9h-25.5zm20.8 0a8.1 8.1 0 10-16.2 0 8.1 8.1 0 0016.2 0zM402.7 26.6V3.5c0-1.2.2-2.4.5-3.5h4.2a8.1 8.1 0 1016.2 0h4.1c.3 1.1.5 2.3.5 3.5v23.2c0 7-5.7 12.7-12.7 12.7-7 0-12.8-5.7-12.8-12.7zm20.9 0a8.1 8.1 0 10-16.2 0 8.1 8.1 0 0016.2 0zM447.1 26.6V3.5c0-1.2.2-2.4.5-3.5h4.2A8.1 8.1 0 10468 0h4.1c.3 1.1.5 2.3.5 3.5v23.2c0 7-5.7 12.7-12.7 12.7-7 0-12.8-5.7-12.8-12.7zm20.9 0a8.1 8.1 0 10-16.2 0 8.1 8.1 0 0016.2 0zM492 26.6V3.5c0-1.2.2-2.4.5-3.5h4.1a8.1 8.1 0 1016.2 0h4.2c.3 1.1.5 2.3.5 3.5v23.2a12.8 12.8 0 01-25.5 0zm20.8 0a8.1 8.1 0 10-16.2 0 8.1 8.1 0 0016.2 0zM536.4 26.6V3.5c0-1.2.2-2.4.5-3.5h4.1a8.1 8.1 0 1016.3 0h4c.4 1.1.6 2.3.6 3.5v23.2c0 7-5.7 12.7-12.7 12.7-7 0-12.8-5.7-12.8-12.7zm20.9 0a8.1 8.1 0 10-16.3 0 8.1 8.1 0 0016.3 0zM579.8 26.6V3.5c0-1.2.2-2.4.5-3.5h4.1a8.1 8.1 0 1016.3 0h4.1c.3 1.1.5 2.3.5 3.5v35.9h-25.5zm20.9 0a8.1 8.1 0 10-16.3 0 8.1 8.1 0 0016.3 0zM625 26.6V3.5c0-1.2.3-2.4.6-3.5h4.1A8.1 8.1 0 10646 0h4.2c.3 1.1.5 2.3.5 3.5v23.2a12.8 12.8 0 01-25.5 0zm21 0a8.1 8.1 0 10-16.3 0 8.1 8.1 0 0016.2 0zM669.5 26.6V3.5c0-1.2.2-2.4.5-3.5h4.1a8.1 8.1 0 1016.3 0h4c.4 1.1.6 2.3.6 3.5v23.2c0 7-5.7 12.7-12.7 12.7-7 0-12.8-5.7-12.8-12.7zm20.9 0a8.1 8.1 0 10-16.3 0 8.1 8.1 0 0016.3 0zM714.3 26.6V3.5c0-1.2.2-2.4.5-3.5h4.2a8.1 8.1 0 1016.2 0h4.1c.4 1.1.5 2.3.5 3.5v23.2c0 7-5.7 12.7-12.7 12.7-7 0-12.8-5.7-12.8-12.7zm20.9 0a8.1 8.1 0 10-16.2 0 8.1 8.1 0 0016.2 0zM758.8 26.6V3.5c0-1.2.1-2.4.5-3.5h4a8.1 8.1 0 1016.3 0h4.1c.4 1.1.5 2.3.5 3.5v23.2c0 7-5.7 12.7-12.7 12.7-7 0-12.8-5.7-12.8-12.7zm20.8 0a8.1 8.1 0 10-16.2 0 8.1 8.1 0 0016.2 0zM802.2 26.6V3.5c0-1.2.1-2.4.5-3.5h4.1A8.1 8.1 0 10823 0h4.2c.3 1.1.5 2.3.5 3.5v35.9h-25.5V26.6zm20.8 0a8.1 8.1 0 10-16.2 0 8.1 8.1 0 0016.2 0zM846.2 26.6V3.5c0-1.2.1-2.4.5-3.5h4.1A8.1 8.1 0 10867 0h4.2c.3 1.1.5 2.3.5 3.5v23.2a12.8 12.8 0 01-25.5 0zm20.8 0a8.1 8.1 0 10-16.2 0 8.1 8.1 0 0016.2 0zM890.6 26.6V3.5c0-1.2.2-2.4.5-3.5h4.1a8.1 8.1 0 1016.2 0h4.2c.3 1.1.5 2.3.5 3.5v23.2a12.8 12.8 0 01-25.5 0zm20.8 0a8.1 8.1 0 10-16.2 0 8.1 8.1 0 0016.2 0z"/>
  <path fill="#b5b9b3" d="M105.4 131.6v109c0 3.5-2.8 6.3-6.3 6.3H14l-9.3 4.7c-1.5.5-3-.2-3.4-1.2-.5-1.2.4-3 2.3-3.5 3.8-1.1 4.7-1.8 4.6-2.3-.1-1-4.5-.5-7-3.5a6 6 0 01-1.1-2.3V134.5c0-.9.2-2.3 1.2-3.5 1.9-2.1 5.5-1.3 5.8-2.3 0-.5-.5-1.4-4.7-3.5-1.5-.8-1.8-2.6-1.1-3.4.6-.9 2.2-1 3.4 0l8.2 3.4H99c.4 0 2.7.1 6.3 6.4z"/>
  <circle cx="72.7" cy="284.6" r="22.6" fill="none" stroke="#ffdb49" stroke-miterlimit="10" stroke-width="11"/>
  <circle cx="72.7" cy="85.9" r="22.6" fill="none" stroke="#ffdb49" stroke-miterlimit="10" stroke-width="11"/>
  <circle cx="893.2" cy="284.4" r="22.6" fill="none" stroke="#ffdb49" stroke-miterlimit="10" stroke-width="11"/>
  <path fill="#30312e" d="M441 63.8h107.8v107.8H441zM316 63.8h107.8v107.8H316zM566 63.8h107.8v107.8H566zM691 63.8h107.8v107.8H691z"/>
  <path fill="#dbddda" d="M507.6 97c-2.8-2.8-6-3.7-7.8-4.2-2-.6-3.6-.7-7-.8a191 191 0 00-12.7 0l-.2 51.6h11.9l.2-18.7a27 27 0 005.8-.8c2.8-.8 7.2-2 10.6-5.8 1-1 4.2-4.8 4.2-10.3a15 15 0 00-5-11zm-7.4 11.4s0 1.3-.8 2.5c-1.1 1.7-4 2.6-7.4 2v-9.4c4-.1 7 1.1 7.8 2.9.5 1 .4 2 .4 2zM362.7 91.4h11.6v52.2h-11.6V91.4zM600.9 91v52.2l30.8.4v-12h-18.9v-10.2h19.3v-12h-19.3v-5.7h19.3V91.4l-31.2-.5zM762 143.4l-13.6-20.6a17 17 0 006.4-4.7c1.1-1.3 4.2-5 4.2-10.4 0-6.2-4-10.3-5-11.2a18 18 0 00-7.9-4c-2-.7-3.6-.8-7-1a194 194 0 00-12.9 0l-.2 52h12l.1-13.7 9 13.6H762zm-23.8-40.2c4-.2 7.1 1.1 8 2.9.4 1 .3 2 .3 2s0 1.3-.8 2.6c-1.1 1.6-4 2.6-7.5 2v-9.5z"/>
  <path fill="#30312e" d="M191 63.8h107.8v107.8H191z"/>
  <path fill="#dbddda" d="M255.8 97a17 17 0 00-7.9-4.2c-2-.6-3.6-.7-7-.8a191 191 0 00-12.7 0l-.2 51.6h12l.1-18.7a27 27 0 005.8-.8c2.8-.8 7.3-2 10.7-5.8 1-1 4.1-4.8 4.1-10.3a15 15 0 00-5-11zm-7.4 11.4s0 1.3-.9 2.5c-1 1.7-4 2.6-7.4 2v-9.4c4-.2 7 1.1 7.8 2.9.5 1 .5 2 .5 2z"/>
  <g stroke="#fff" transform="translate(-59 -67.4)">
    <path fill="none" stroke-linecap="round" stroke-linejoin="round" stroke-width="4" d="M303 349.3v21.6h18.3v-86.6l37.7 57.1 14.3-19.4v-17.3l20.4-30.6h11.4"/>
    <path fill="#fff" d="M300 349.5a3 3 0 116 0 3 3 0 01-6 0zM405 277.2a3 3 0 100-6 3 3 0 000 6z"/>
    <path fill="none" stroke-linecap="round" stroke-linejoin="round" stroke-width="4" d="M312.2 358.9v-14.5l-8.7-8.6V266h26l28.5 43.8 30.6-42.8h28.5v11.2l-8.7 8.7v33.3"/>
    <path fill="#fff" d="M315.2 358.8a3 3 0 11-6 0 3 3 0 016 0zM405.4 320a3 3 0 106 0 3 3 0 00-6 0z"/>
    <path fill="none" stroke-linecap="round" stroke-linejoin="round" stroke-width="4" d="M312.2 329.4v-55.3h13.2l2.8 5.6"/>
    <path fill="#fff" d="M315.2 329.2a3 3 0 11-6 0 3 3 0 016 0z"/>
    <circle cx="328.1" cy="279.6" r="3" fill="#fff" transform="rotate(-22.1 328.1 279.6)"/>
    <path fill="none" stroke-linecap="round" stroke-linejoin="round" stroke-width="4" d="M336.1 290.8l22.9 35.3 4.4-5.9"/>
    <path fill="#fff" d="M333.7 292.6a3 3 0 115-3.3 3 3 0 01-5 3.3zM365.7 322.2a3 3 0 10-4.8-3.7 3 3 0 004.8 3.7z"/>
    <path fill="none" stroke-linecap="round" stroke-linejoin="round" stroke-width="4" d="M381.1 309.5l17.7-25.2v41.9l10.1 11V363"/>
    <path fill="#fff" d="M383.6 311.1a3 3 0 11-5-3.4 3 3 0 015 3.4zM406 362.8a3 3 0 106 0 3 3 0 00-6 0z"/>
    <path fill="none" stroke-linecap="round" stroke-linejoin="round" stroke-width="4" d="M398.8 343.2v28.7H417v-77.6"/>
    <path fill="#fff" d="M395.8 343.4a3 3 0 116 0 3 3 0 01-6 0zM420 294.5a3 3 0 10-6 0 3 3 0 006 0z"/>
    <path fill="none" stroke-linecap="round" stroke-linejoin="round" stroke-width="4" d="M504.9 269.1h-27.7l-17.3 17.3V373h16.3v-34.7h23.4l7.7-7.6h18"/>
    <path fill="#fff" d="M504.8 266a3 3 0 110 6 3 3 0 010-6zM525.1 333.7a3 3 0 100-6 3 3 0 000 6z"/>
    <path fill="none" stroke-linecap="round" stroke-linejoin="round" stroke-width="4" d="M468 302.9v-11.4l13.2-13.8h29.7l8-8.4h7.6l16.9 17.7v28.9l-8 8.4V362"/>
    <path fill="#fff" d="M471 302.7a3 3 0 11-6 0 3 3 0 016 0zM532.4 361.8a3 3 0 106 0 3 3 0 00-6 0z"/>
    <path fill="none" stroke-linecap="round" stroke-linejoin="round" stroke-width="4" d="M468 363v-45.1l9.5-9.6v-12.8l8.8-8.9h30.8l8.4 8.6V321h-46.6"/>
    <path fill="#fff" d="M471 362.8a3 3 0 11-6 0 3 3 0 016 0zM479 318a3 3 0 100 6 3 3 0 000-6z"/>
    <path fill="none" stroke-linecap="round" stroke-linejoin="round" stroke-width="4" d="M523 279.2l11.2 11.2V311"/>
    <path fill="#fff" d="M521 281.5a3 3 0 014.3-4.3 3 3 0 01-4.3 4.3zM531.2 310.9a3 3 0 106 0 3 3 0 00-6 0z"/>
    <path fill="none" stroke-linecap="round" stroke-linejoin="round" stroke-width="4" d="M477.5 329.8h18.2"/>
    <path fill="#fff" d="M477.7 332.8a3 3 0 110-6 3 3 0 010 6zM495.6 332.8a3 3 0 100-6 3 3 0 000 6z"/>
    <path fill="none" stroke-linecap="round" stroke-linejoin="round" stroke-width="4" d="M513.7 337.3h12.5V375h18.2v-44"/>
    <circle cx="513.8" cy="337.3" r="3" fill="#fff" transform="rotate(-80.8 513.8 337.3)"/>
    <path fill="#fff" d="M547.4 331.1a3 3 0 10-6 0 3 3 0 006 0z"/>
    <path fill="none" stroke-linecap="round" stroke-linejoin="round" stroke-width="4" d="M582.1 280.2V268h19.3v45h23.5l31.1-43.9h22.5l-16.6 24.4"/>
    <path fill="#fff" d="M585.1 280a3 3 0 11-6 0 3 3 0 016 0zM659.5 291.7a3 3 0 105 3.4 3 3 0 00-5-3.4z"/>
    <path fill="none" stroke-linecap="round" stroke-linejoin="round" stroke-width="4" d="M661.7 277.8l-10 12.7v18.2l-9.6 12.9 37.4 52.4H656l-11.3-16.9"/>
    <path fill="#fff" d="M659.2 276a3 3 0 114.8 3.8 3 3 0 01-4.8-3.8zM647.3 355.6a3 3 0 10-5 3.3 3 3 0 105-3.3z"/>
    <path fill="none" stroke-linecap="round" stroke-linejoin="round" stroke-width="4" d="M591.2 278.4v7.8l-9.2 8.6V374h17.3v-20.7"/>
    <path fill="#fff" d="M588.2 278.5a3 3 0 116 0 3 3 0 01-6 0zM602.3 353.5a3 3 0 10-6 0 3 3 0 006 0z"/>
    <path fill="none" stroke-linecap="round" stroke-linejoin="round" stroke-width="4" d="M590.7 299.8v35"/>
    <path fill="#fff" d="M587.7 300a3 3 0 116 0 3 3 0 01-6 0zM587.7 334.6a3 3 0 106 0 3 3 0 00-6 0z"/>
    <path fill="none" stroke-linecap="round" stroke-linejoin="round" stroke-width="4" d="M590.7 363.6v-16.4l9.1-9.1v-8H626l10.7 16.1h10.7l12.2 16.9"/>
    <path fill="#fff" d="M593.7 363.5a3 3 0 11-6 0 3 3 0 016 0zM657.1 364.8a3 3 0 105-3.6 3 3 0 00-5 3.6z"/>
    <path fill="none" stroke-linecap="round" stroke-linejoin="round" stroke-width="4" d="M601 320.5h30.4l11.1-14.9"/>
    <circle cx="601.2" cy="320.5" r="3" fill="#fff"/>
    <path fill="#fff" d="M644.8 307.6a3 3 0 10-4.8-3.6 3 3 0 004.8 3.6z"/>
    <path fill="none" stroke-linecap="round" stroke-linejoin="round" stroke-width="4" d="M642.5 336.4l-7.3-9.4"/>
    <path fill="#fff" d="M644.8 334.5a3 3 0 11-4.8 3.6 3 3 0 014.8-3.6zM637.7 325.3a3 3 0 10-4.7 3.7 3 3 0 004.7-3.7z"/>
    <path fill="none" stroke-linecap="round" stroke-linejoin="round" stroke-width="4" d="M718.2 266.6h-11.7v31.3l7.8 7.9v50.4l9 8.9h28.5"/>
    <circle cx="718.1" cy="266.6" r="3" fill="#fff"/>
    <circle cx="751.7" cy="365.1" r="3" fill="#fff"/>
    <path fill="none" stroke-linecap="round" stroke-linejoin="round" stroke-width="4" d="M715.5 292.8v-18.4h8.9l8.4-8.4h61.1v18.5h-69.5v26.9h57.1v16.8h-32.4l-9-9H725"/>
    <path fill="#fff" d="M718.5 292.7a3 3 0 11-6 0 3 3 0 016 0z"/>
    <circle cx="725.2" cy="319.2" r="3" fill="#fff"/>
    <path fill="none" stroke-linecap="round" stroke-linejoin="round" stroke-width="4" d="M754.2 320.3h16.6"/>
    <circle cx="754.3" cy="320.3" r="3" fill="#fff"/>
    <circle cx="770.7" cy="320.3" r="3" fill="#fff"/>
    <path fill="none" stroke-linecap="round" stroke-linejoin="round" stroke-width="4" d="M737.4 274.4h45.8"/>
    <circle cx="737.5" cy="274.4" r="3" fill="#fff"/>
    <circle cx="783" cy="274.4" r="3" fill="#fff"/>
    <path fill="none" stroke-linecap="round" stroke-linejoin="round" stroke-width="4" d="M735 328.2h-11.7v22.4l5.6 5.6H758l9 8.9h15"/>
    <circle cx="734.9" cy="328.2" r="3" fill="#fff"/>
    <path fill="#fff" d="M781.9 368.1a3 3 0 100-6 3 3 0 000 6z"/>
    <path fill="none" stroke-linecap="round" stroke-linejoin="round" stroke-width="4" d="M705.4 312v47.5l13.4 13.5h75.1v-19.1h-19.6"/>
    <path fill="#fff" d="M702.4 312.1a3 3 0 116 0 3 3 0 01-6 0zM774.5 351a3 3 0 100 6 3 3 0 000-6z"/>
  </g>
  <path fill="#d4aa00" d="M901.3 156h23.2c1.2 0 2.3-.1 3.5-.5v-4.1a8.1 8.1 0 110-16.2V131a14 14 0 00-3.5-.5h-23.2a12.8 12.8 0 000 25.5zm0-20.8a8.1 8.1 0 110 16.2 8.1 8.1 0 010-16.2z"/>
  <circle cx="893.2" cy="85.9" r="22.6" fill="none" stroke="#ffdb49" stroke-miterlimit="10" stroke-width="11"/>
  <path fill="none" stroke="#fff" stroke-dasharray="3 3" stroke-dashoffset="30.1" stroke-opacity=".5" stroke-width="3" d="M189.5 62.1h111v111h-111zM313.5 62.1h111v111h-111zM439.5 62.1h111v111h-111zM563.5 62.1h111v111h-111zM689.5 62.1h111v111h-111z"/>
</svg>